<?xml version="1.0" standalone="no"?>
<!DOCTYPE svg PUBLIC "-//W3C//DTD SVG 20010904//EN"
 "http://www.w3.org/TR/2001/REC-SVG-20010904/DTD/svg10.dtd">
<svg version="1.0" xmlns="http://www.w3.org/2000/svg"
 width="500.000000pt" height="500.000000pt" viewBox="0 0 500.000000 500.000000"
 preserveAspectRatio="xMidYMid meet">
<metadata>
Created by potrace 1.14, written by Peter Selinger 2001-2017
</metadata>
<g transform="translate(0.000000,500.000000) scale(0.100000,-0.100000)"
fill="#000000" stroke="none">
<path d="M790 3011 c-109 -42 -190 -130 -210 -228 -33 -159 38 -262 252 -367
138 -67 168 -93 168 -147 0 -48 -24 -74 -82 -90 -74 -19 -168 6 -265 71 -24
17 -48 30 -52 30 -5 0 -34 -43 -66 -96 -66 -111 -70 -100 60 -165 105 -51 206
-73 311 -66 180 12 301 90 343 219 18 56 16 156 -4 205 -29 71 -113 139 -265
214 -147 73 -173 94 -173 140 0 100 154 111 325 21 10 -5 99 171 93 185 -6 18
-75 50 -156 73 -94 26 -216 26 -279 1z"/>
<path d="M4283 3000 c-110 -67 -64 -240 63 -240 83 0 134 50 134 133 0 99
-111 160 -197 107z"/>
<path d="M2022 2625 c-62 -15 -149 -72 -188 -123 -65 -85 -89 -201 -62 -296
24 -84 101 -176 183 -218 124 -64 324 -39 429 53 79 70 79 72 -15 119 l-81 41
-27 -25 c-53 -50 -134 -60 -202 -25 -37 18 -69 65 -69 99 0 6 80 10 235 10
l235 0 0 60 c0 72 -30 158 -72 206 -82 93 -229 133 -366 99z m161 -146 c23
-11 57 -57 57 -78 0 -7 -40 -11 -121 -11 -120 0 -120 0 -114 23 4 12 20 34 36
50 23 21 39 27 74 27 24 0 55 -5 68 -11z"/>
<path d="M2910 2615 c0 -3 60 -112 134 -244 74 -131 141 -252 150 -270 l17
-32 -111 -214 -111 -215 129 0 129 0 251 483 c139 266 252 487 252 490 0 4
-56 7 -125 7 l-126 0 -54 -117 c-30 -65 -65 -140 -78 -167 l-23 -49 -90 166
-89 167 -127 0 c-71 0 -128 -2 -128 -5z"/>
<path d="M4240 2295 l0 -325 110 0 110 0 0 325 0 325 -110 0 -110 0 0 -325z"/>
<path d="M1334 2221 c-58 -36 -76 -69 -72 -134 3 -46 10 -63 33 -87 57 -60
138 -63 200 -9 100 88 37 249 -97 249 -18 0 -47 -9 -64 -19z"/>
<path d="M2544 2230 c-11 -4 -35 -25 -53 -46 -31 -35 -33 -41 -29 -96 3 -47
10 -64 33 -88 57 -60 138 -63 200 -9 57 50 65 127 21 194 -29 44 -117 68 -172
45z"/>
<path d="M3774 2230 c-11 -4 -35 -25 -53 -46 -31 -35 -33 -41 -29 -96 3 -47
10 -64 33 -88 57 -60 138 -63 200 -9 57 50 65 127 21 194 -29 44 -117 68 -172
45z"/>
<path d="M2146 1849 c-14 -16 -15 -23 -6 -29 7 -4 11 -17 8 -28 -3 -11 -2 -26
3 -33 6 -9 9 -2 9 23 0 20 6 39 13 41 9 4 8 8 -3 16 -10 7 -11 11 -2 11 6 0
12 5 12 10 0 16 -14 11 -34 -11z"/>
<path d="M2507 1863 c-11 -10 -8 -113 3 -113 6 0 10 27 10 60 0 61 -1 65 -13
53z"/>
<path d="M1401 1803 c1 -32 4 -48 6 -36 3 14 14 24 33 28 53 12 43 65 -12 65
-28 0 -28 -1 -27 -57z m54 27 c0 -8 -10 -16 -22 -18 -22 -3 -32 16 -16 32 12
11 38 2 38 -14z"/>
<path d="M1969 1838 c-11 -7 -11 -11 -1 -15 6 -2 12 -20 12 -39 0 -25 4 -34
17 -34 13 0 14 3 5 12 -15 15 -16 58 -2 58 6 0 10 4 10 9 0 14 -26 20 -41 9z"/>
<path d="M1605 1816 c-21 -32 -5 -66 30 -66 35 0 51 34 30 66 -8 13 -22 24
-30 24 -8 0 -22 -11 -30 -24z m53 -20 c4 -21 -14 -37 -35 -29 -14 5 -18 35 -6
47 12 12 38 1 41 -18z"/>
<path d="M1802 1790 c1 -36 2 -39 5 -13 2 18 13 39 24 47 20 14 20 14 -5 12
-24 -1 -26 -4 -24 -46z"/>
<path d="M2310 1826 c-28 -35 11 -93 48 -70 35 22 22 84 -18 84 -10 0 -23 -7
-30 -14z m50 -30 c0 -32 -18 -43 -37 -23 -20 20 -10 47 17 47 15 0 20 -7 20
-24z"/>
<path d="M2653 1795 c0 -27 2 -38 4 -22 2 15 2 37 0 50 -2 12 -4 0 -4 -28z"/>
<path d="M2795 1816 c-21 -32 -5 -66 30 -66 35 0 51 34 30 66 -8 13 -22 24
-30 24 -8 0 -22 -11 -30 -24z m53 -20 c4 -21 -14 -37 -35 -29 -14 5 -18 35 -6
47 12 12 38 1 41 -18z"/>
</g>
</svg>
